<?xml version="1.0" encoding="UTF-8" standalone="no"?>
<!-- Created with Inkscape (http://www.inkscape.org/) -->

<svg
   width="1600"
   height="900"
   viewBox="0 0 423.33333 238.125"
   version="1.1"
   id="svg984"
   inkscape:export-filename="wings-over-pnw-logo-no-bg.png"
   inkscape:export-xdpi="96"
   inkscape:export-ydpi="96"
   inkscape:version="1.2.2 (732a01da63, 2022-12-09)"
   sodipodi:docname="wings-over-pnw-logo-no-bg.svg"
   xmlns:inkscape="http://www.inkscape.org/namespaces/inkscape"
   xmlns:sodipodi="http://sodipodi.sourceforge.net/DTD/sodipodi-0.dtd"
   xmlns="http://www.w3.org/2000/svg"
   xmlns:svg="http://www.w3.org/2000/svg">
  <sodipodi:namedview
     id="namedview986"
     pagecolor="#ffffff"
     bordercolor="#000000"
     borderopacity="0.25"
     inkscape:showpageshadow="2"
     inkscape:pageopacity="0.0"
     inkscape:pagecheckerboard="0"
     inkscape:deskcolor="#d1d1d1"
     inkscape:document-units="mm"
     showgrid="false"
     inkscape:zoom="0.457453"
     inkscape:cx="815.38431"
     inkscape:cy="1087.5434"
     inkscape:window-width="2558"
     inkscape:window-height="1360"
     inkscape:window-x="2578"
     inkscape:window-y="2177"
     inkscape:window-maximized="0"
     inkscape:current-layer="layer1" />
  <defs
     id="defs981">
    <clipPath
       clipPathUnits="userSpaceOnUse"
       id="clipPath20">
      <path
         d="M 0,2000 H 2000 V 0 H 0 Z"
         id="path18" />
    </clipPath>
  </defs>
  <g
     inkscape:label="Layer 1"
     inkscape:groupmode="layer"
     id="layer1">
    <g
       id="g16"
       clip-path="url(#clipPath20)"
       transform="matrix(0.35277777,0,0,-0.35277777,-141.7283,472.0359)">
      <g
         id="g22"
         transform="translate(999.2827,1041.1084)">
        <path
           d="m 0,0 c -12.554,0 -22.768,-10.214 -22.768,-22.768 0,-12.554 10.214,-22.768 22.768,-22.768 12.554,0 22.768,10.214 22.768,22.768 C 22.768,-10.214 12.554,0 0,0 m 0,-47.536 c -13.657,0 -24.768,11.111 -24.768,24.768 C -24.768,-9.111 -13.657,2 0,2 13.657,2 24.768,-9.111 24.768,-22.768 24.768,-36.425 13.657,-47.536 0,-47.536"
           style="fill:#ffffff;fill-opacity:1;fill-rule:nonzero;stroke:none"
           id="path24" />
      </g>
      <g
         id="g26"
         transform="translate(999.2827,987.5469)">
        <path
           d="m 0,0 c -4.218,0 -7.649,-3.431 -7.649,-7.648 0,-4.218 3.431,-7.649 7.649,-7.649 4.217,0 7.648,3.431 7.648,7.649 C 7.648,-3.431 4.217,0 0,0 m 0,-17.297 c -5.32,0 -9.649,4.328 -9.649,9.649 C -9.649,-2.328 -5.32,2 0,2 5.32,2 9.648,-2.328 9.648,-7.648 9.648,-12.969 5.32,-17.297 0,-17.297"
           style="fill:#ffffff;fill-opacity:1;fill-rule:nonzero;stroke:none"
           id="path28" />
      </g>
      <g
         id="g30"
         transform="translate(933.4644,993.3008)">
        <path
           d="m 0,0 -0.865,1.803 c 0.281,0.134 28.266,13.528 43.71,17.272 l 0.472,-1.943 C 28.077,13.437 0.279,0.134 0,0"
           style="fill:#ffffff;fill-opacity:1;fill-rule:nonzero;stroke:none"
           id="path32" />
      </g>
      <g
         id="g34"
         transform="translate(873.3765,940.3926)">
        <path
           d="m 0,0 c -3.868,0 -6.901,0.844 -9.077,2.532 -3.82,2.964 -3.42,7.365 -3.401,7.551 l 0.05,0.486 L 35.123,40.45 36.188,38.756 -10.499,9.419 C -10.478,8.395 -10.168,5.893 -7.825,4.092 -4.75,1.728 2.383,0.188 18.896,6.266 50.803,18.01 108.38,61.07 108.958,61.503 l 1.2,-1.599 C 109.578,59.468 51.766,16.233 19.586,4.389 11.641,1.464 5.096,0 0,0"
           style="fill:#ffffff;fill-opacity:1;fill-rule:nonzero;stroke:none"
           id="path36" />
      </g>
      <g
         id="g38"
         transform="translate(932.7197,1005.46)">
        <path
           d="M 0,0 -1.997,0.105 -1.238,14.45 0.759,14.345 Z"
           style="fill:#ffffff;fill-opacity:1;fill-rule:nonzero;stroke:none"
           id="path40" />
      </g>
      <g
         id="g42"
         transform="translate(995.5903,814.9307)">
        <path
           d="m 0,0 h 7.643 c 0.886,0.285 6.316,2.342 6.316,9.89 V 21.1 h 3.16 c 0.993,3.4 4.96,18.671 -0.408,29.267 -2.297,4.535 -6.052,7.674 -11.16,9.332 l -0.692,0.224 v 15.369 l 0.675,0.233 c 1.854,0.64 6.666,2.931 6.666,5.815 v 0.738 l 0.705,0.217 c 0.238,0.078 5.959,2.042 5.397,11.817 l -0.034,0.587 6.707,4.259 2.845,9.067 0.534,0.142 c 24.357,6.439 34.119,19.164 34.215,19.291 l 0.27,0.361 0.45,0.037 48.534,3.94 0.114,-0.017 c 0.172,-0.025 17.28,-2.564 21.328,-1.969 3.154,0.461 7.182,4.675 8.468,6.26 l 0.257,0.316 21.09,2.446 3.496,-41.999 -1.991,-0.191 c -0.586,5.406 -4.804,8.285 -5.677,8.826 -5.342,0.548 -9.035,-0.149 -11.287,-2.128 -3.39,-2.98 -3.512,-8.828 -3.653,-15.6 -0.049,-2.364 -0.1,-4.809 -0.291,-7.307 C 142.767,68.46 146.229,61.68 147.228,60 h 13.156 c 4.891,4.415 5.788,21.298 5.716,27.538 l -0.012,1.012 h 8.964 l 7.437,52.048 304.733,34.042 0.221,-0.081 c 34.337,-12.569 68.519,-0.888 81.796,7.045 5.359,3.202 7.46,5.728 7.631,6.918 0.36,2.53 -0.11,4.532 -1.481,6.298 -3.811,4.914 -15.132,8.348 -34.609,10.496 -31.771,3.495 -56.173,-13.315 -56.416,-13.484 l -0.227,-0.16 -0.277,-0.02 -388.731,-27.611 -25.143,14.886 0.531,0.865 c 0.994,1.623 1.241,7.463 1.163,10.764 l -0.024,1.024 53.569,-0.019 c 0.175,-0.03 4.589,-0.717 8.879,6.367 0.804,1.326 1.616,3.155 0.925,4.335 -0.859,1.468 -3.744,1.7 -4.795,1.667 H 70.966 l -0.045,0.951 c -1.423,29.455 -9.519,50.541 -24.063,62.672 -11.524,9.612 -23.881,10.667 -28.73,10.667 h -0.066 l -1.041,-0.002 0.039,1.039 c 1.179,31.282 -0.289,65.233 -0.573,71.293 H 6.222 C -2.567,342.993 -6.651,318.329 -5.591,279.157 l 0.028,-1.027 -1.517,0.006 c -0.165,0.018 -16.651,1.652 -31.402,-10.951 -14.273,-12.193 -22.223,-33.155 -23.629,-62.304 l -0.047,-0.951 h -59.233 c -1.072,0.031 -3.962,-0.198 -4.82,-1.664 -0.691,-1.181 0.122,-3.011 0.926,-4.338 4.281,-7.084 8.706,-6.4 8.89,-6.366 l 0.185,0.018 h 53.363 l -0.024,-1.024 c -0.078,-3.301 0.169,-9.141 1.163,-10.764 l 0.531,-0.865 -25.143,-14.886 -0.311,0.021 -388.686,27.61 -0.227,0.16 c -0.244,0.169 -24.646,16.98 -56.427,13.484 -19.471,-2.148 -30.789,-5.58 -34.599,-10.493 -1.371,-1.767 -1.842,-3.769 -1.48,-6.302 0.168,-1.187 2.26,-3.707 7.599,-6.902 13.271,-7.943 47.453,-19.639 81.827,-7.06 l 0.221,0.081 0.234,-0.027 304.489,-34.015 7.437,-52.048 h 8.974 l -0.011,-1.012 c -0.074,-6.241 0.817,-23.126 5.705,-27.538 h 13.156 c 0.997,1.676 4.461,8.457 3.551,20.434 -0.189,2.49 -0.239,4.928 -0.287,7.285 -0.139,6.78 -0.26,12.635 -3.652,15.619 -2.253,1.981 -5.95,2.679 -11.291,2.13 -0.868,-0.539 -5.083,-3.418 -5.678,-8.827 l -1.991,0.192 3.506,41.999 21.08,-2.446 0.257,-0.316 c 1.289,-1.585 5.323,-5.799 8.478,-6.26 4.049,-0.594 21.156,1.944 21.328,1.969 l 0.114,0.017 48.973,-3.976 0.271,-0.361 c 0.096,-0.128 9.867,-12.853 34.216,-19.292 l 0.574,-0.152 2.307,-9.434 3.102,1.752 v 5.174 l 5.64,3.257 5.26,-26.594 V 53.79 h 3.52 V 49.916 L 0.074,49.743 C 0.047,49.734 -5.42,47.985 -5.42,30.44 -5.42,13.183 -4.495,1.394 0,0 m 7.922,-2 -8.32,0.034 c -5.903,1.572 -7.022,12.602 -7.022,32.406 0,15.928 4.387,19.955 6.279,20.951 v 0.399 h -3.52 v 30.282 l -4.678,23.563 -2.222,-1.282 v -5.186 l -6.417,-3.627 -2.653,10.847 c -22.644,6.132 -32.652,17.312 -34.445,19.511 l -47.861,3.886 c -1.645,-0.243 -17.601,-2.571 -21.798,-1.953 -4.031,0.589 -8.362,5.361 -9.475,6.662 l -18.23,2.114 -2.773,-33.227 c 1.902,2.596 4.162,3.855 4.315,3.938 l 0.173,0.095 0.197,0.021 c 6.05,0.655 10.315,-0.196 13.042,-2.594 4.053,-3.565 4.181,-9.828 4.33,-17.08 0.048,-2.33 0.098,-4.739 0.282,-7.175 1.116,-14.677 -3.97,-21.873 -4.187,-22.172 l -0.3,-0.413 h -14.928 l -0.272,0.216 c -6.187,4.897 -6.691,23.687 -6.72,28.334 h -8.697 l -7.463,52.232 -302.717,33.818 c -35.009,-12.71 -69.793,-0.792 -83.32,7.303 -3.007,1.8 -8.117,5.276 -8.553,8.336 -0.436,3.062 0.179,5.617 1.88,7.81 4.218,5.438 15.644,9.014 35.961,11.255 30.875,3.392 54.93,-11.927 57.558,-13.676 l 387.831,-27.548 22.96,13.594 c -0.954,2.666 -1.05,7.682 -1.042,9.906 h -51.249 c -0.868,-0.125 -6.142,-0.501 -10.865,7.313 -1.579,2.608 -1.895,4.758 -0.938,6.388 1.612,2.744 6.076,2.663 6.58,2.648 l 57.294,0.001 c 1.563,29.252 9.741,50.379 24.315,62.806 13.773,11.744 28.607,11.657 32.128,11.448 -0.999,40.143 3.322,64.411 12.847,72.142 l 0.276,0.224 h 12.884 l 0.049,-0.949 c 0.02,-0.372 1.88,-37.259 0.659,-71.394 5.609,-0.146 17.72,-1.675 29.042,-11.118 14.832,-12.372 23.151,-33.62 24.731,-63.159 h 57.33 c 0.472,0.011 4.94,0.095 6.552,-2.652 0.958,-1.63 0.642,-3.778 -0.937,-6.386 -4.731,-7.811 -9.993,-7.436 -10.863,-7.312 h -51.26 c 0.008,-2.224 -0.088,-7.24 -1.042,-9.906 l 22.96,-13.594 387.841,27.548 c 2.629,1.749 26.686,17.065 57.548,13.676 20.322,-2.242 31.752,-5.819 35.971,-11.258 1.701,-2.193 2.316,-4.747 1.88,-7.807 v -0.001 c -0.441,-3.066 -5.568,-6.548 -8.585,-8.351 -13.531,-8.085 -48.317,-19.984 -83.287,-7.287 L 184.25,138.782 176.787,86.55 H 168.1 c -0.031,-4.647 -0.543,-23.438 -6.73,-28.334 L 161.097,58 h -14.928 l -0.299,0.413 c -0.217,0.299 -5.303,7.495 -4.187,22.172 0.187,2.443 0.237,4.86 0.286,7.197 0.151,7.243 0.281,13.499 4.331,17.06 2.725,2.397 6.991,3.246 13.037,2.592 l 0.196,-0.021 0.174,-0.094 c 0.152,-0.083 2.415,-1.341 4.317,-3.935 l -2.766,33.223 -18.237,-2.114 c -1.113,-1.301 -5.436,-6.073 -9.467,-6.662 -4.2,-0.616 -20.153,1.711 -21.798,1.953 L 63.885,125.898 C 62.093,123.697 52.081,112.505 29.399,106.375 L 26.664,97.662 20.326,93.637 C 20.642,84.582 15.927,81.49 14.148,80.649 13.592,76.948 8.69,74.633 6.859,73.891 V 61.366 c 5.285,-1.884 9.198,-5.279 11.639,-10.101 6.416,-12.673 0.563,-30.718 0.311,-31.48 L 18.582,19.1 H 15.959 V 9.89 c 0,-9.616 -7.831,-11.834 -7.91,-11.856 z"
           style="fill:#ffffff;fill-opacity:1;fill-rule:nonzero;stroke:none"
           id="path44" />
      </g>
      <g
         id="g46"
         transform="translate(1006.5942,1040.7534)">
        <path
           d="m 0,0 -1.769,0.935 c 4.17,7.888 6.803,25.552 7.825,52.5 L 8.055,53.359 C 7.021,26.108 4.311,8.156 0,0"
           style="fill:#ffffff;fill-opacity:1;fill-rule:nonzero;stroke:none"
           id="path48" />
      </g>
      <g
         id="g50"
         transform="translate(991.8677,1041.0977)">
        <path
           d="m 0,0 c -0.031,0.25 -3.115,25.347 -3.867,52.936 l 1.999,0.054 C -1.118,25.501 1.954,0.496 1.984,0.246 Z"
           style="fill:#ffffff;fill-opacity:1;fill-rule:nonzero;stroke:none"
           id="path52" />
      </g>
      <g
         id="g54"
         transform="translate(934.9927,1036.0078)">
        <path
           d="m 0,0 -1.711,1.035 c 13.534,22.368 56.22,20.65 58.03,20.569 L 56.227,19.605 C 55.795,19.627 12.918,21.35 0,0"
           style="fill:#ffffff;fill-opacity:1;fill-rule:nonzero;stroke:none"
           id="path56" />
      </g>
      <g
         id="g58"
         transform="translate(951.3286,1002.5767)">
        <path
           d="m 0,0 c -0.125,0.537 -2.98,13.271 4.458,22.423 4.958,6.101 13.257,9.062 24.662,8.802 L 29.074,29.226 C 18.329,29.463 10.567,26.762 6.019,21.172 -0.803,12.792 1.92,0.575 1.948,0.453 Z"
           style="fill:#ffffff;fill-opacity:1;fill-rule:nonzero;stroke:none"
           id="path60" />
      </g>
      <g
         id="g62"
         transform="translate(965.3076,977.8921)" />
      <path
         d="m 983.135,951.064 h 32.207 v 12.758 h -32.207 z m 34.207,-2 h -36.207 v 16.758 h 36.207 z"
         style="fill:#ffffff;fill-opacity:1;fill-rule:nonzero;stroke:none"
         id="path66" />
      <g
         id="g68"
         transform="translate(974.8179,921.8999)">
        <path
           d="M 0,0 -2.055,8.562 9.87,13.972 10.696,12.15 0.275,7.423 1.944,0.467 Z"
           style="fill:#ffffff;fill-opacity:1;fill-rule:nonzero;stroke:none"
           id="path70" />
      </g>
      <g
         id="g72"
         transform="translate(1010.019,911.6768)">
        <path
           d="M 0,0 -1.971,0.339 2.12,24.163 -8.32,18.767 h -4.833 l -10.548,5.452 1.638,-13.643 -1.986,-0.239 -2.087,17.392 13.469,-6.962 h 3.86 l 13.578,7.017 z"
           style="fill:#ffffff;fill-opacity:1;fill-rule:nonzero;stroke:none"
           id="path74" />
      </g>
      <g
         id="g76"
         transform="translate(1025.2026,922.0776)">
        <path
           d="m 0,0 -1.997,0.111 0.394,7.076 -10.548,4.786 0.826,1.821 11.796,-5.352 z"
           style="fill:#ffffff;fill-opacity:1;fill-rule:nonzero;stroke:none"
           id="path78" />
      </g>
      <g
         id="g80"
         transform="translate(517.0117,987.5918)">
        <path
           d="m 0,0 -34.821,10.786 0.212,0.906 c 3.062,13.129 36.888,9.456 38.327,9.291 L 3.494,18.996 c -9.008,1.02 -32.374,1.669 -35.873,-6.873 L 0.592,1.91 Z"
           style="fill:#ffffff;fill-opacity:1;fill-rule:nonzero;stroke:none"
           id="path82" />
      </g>
      <g
         id="g84"
         transform="translate(877.3042,959.125)">
        <path
           d="m 0,0 -394.026,38.937 0.196,1.99 L 0.196,1.99 Z"
           style="fill:#ffffff;fill-opacity:1;fill-rule:nonzero;stroke:none"
           id="path86" />
      </g>
      <g
         id="g88"
         transform="translate(842.1465,951.6548)">
        <path
           d="M 0,0 -21.207,1.966 -21.022,3.957 0.185,1.991 Z"
           style="fill:#ffffff;fill-opacity:1;fill-rule:nonzero;stroke:none"
           id="path90" />
      </g>
      <g
         id="g92"
         transform="translate(838.3027,902.3809)">
        <path
           d="m 0,0 -1.99,0.194 c 0.022,0.232 0.565,5.718 1.546,9.37 L 1.488,9.044 C 0.55,5.554 0.005,0.055 0,0"
           style="fill:#ffffff;fill-opacity:1;fill-rule:nonzero;stroke:none"
           id="path94" />
      </g>
      <path
         d="m 932.101,1011.685 h -62.852 v 2 h 62.852 z"
         style="fill:#ffffff;fill-opacity:1;fill-rule:nonzero;stroke:none"
         id="path96" />
      <g
         id="g98"
         transform="translate(1004.3418,912.7539)">
        <path
           d="m 0,0 c -3.156,0 -5.724,-2.568 -5.724,-5.724 0,-3.156 2.568,-5.724 5.724,-5.724 3.156,0 5.724,2.568 5.724,5.724 C 5.724,-2.568 3.156,0 0,0 m 0,-13.448 c -4.259,0 -7.724,3.465 -7.724,7.724 C -7.724,-1.465 -4.259,2 0,2 4.259,2 7.724,-1.465 7.724,-5.724 7.724,-9.983 4.259,-13.448 0,-13.448"
           style="fill:#ffffff;fill-opacity:1;fill-rule:nonzero;stroke:none"
           id="path100" />
      </g>
      <g
         id="g102"
         transform="translate(1066.5303,993.3008)">
        <path
           d="m 0,0 c -0.279,0.134 -28.077,13.437 -43.317,17.132 l 0.471,1.943 C -27.401,15.331 0.584,1.937 0.865,1.803 Z"
           style="fill:#ffffff;fill-opacity:1;fill-rule:nonzero;stroke:none"
           id="path104" />
      </g>
      <g
         id="g106"
         transform="translate(1126.6177,940.3926)">
        <path
           d="m 0,0 c -5.096,0 -11.641,1.464 -19.586,4.389 -32.18,11.844 -89.992,55.079 -90.572,55.515 l 1.2,1.599 C -108.38,61.07 -50.8,18.009 -18.896,6.266 -2.382,0.187 4.749,1.729 7.825,4.092 c 2.342,1.8 2.652,4.299 2.674,5.327 l -46.686,29.337 1.064,1.694 47.551,-29.881 0.05,-0.486 C 12.497,9.897 12.897,5.496 9.077,2.532 6.901,0.844 3.867,0 0,0"
           style="fill:#ffffff;fill-opacity:1;fill-rule:nonzero;stroke:none"
           id="path108" />
      </g>
      <g
         id="g110"
         transform="translate(1067.2744,1005.46)">
        <path
           d="M 0,0 -0.758,14.345 1.239,14.45 1.997,0.105 Z"
           style="fill:#ffffff;fill-opacity:1;fill-rule:nonzero;stroke:none"
           id="path112" />
      </g>
      <g
         id="g114"
         transform="translate(1065.0044,1036.0029)">
        <path
           d="m 0,0 c -11.655,19.271 -47.653,19.75 -54.74,19.647 l -0.029,2 c 7.289,0.101 44.261,-0.408 56.48,-20.612 z"
           style="fill:#ffffff;fill-opacity:1;fill-rule:nonzero;stroke:none"
           id="path116" />
      </g>
      <g
         id="g118"
         transform="translate(1048.6655,1002.5767)">
        <path
           d="m 0,0 -1.948,0.453 c 0.028,0.122 2.751,12.339 -4.071,20.719 -4.549,5.589 -12.307,8.283 -23.055,8.054 l -0.046,1.999 c 11.413,0.26 19.704,-2.701 24.662,-8.802 C 2.98,13.271 0.125,0.537 0,0"
           style="fill:#ffffff;fill-opacity:1;fill-rule:nonzero;stroke:none"
           id="path120" />
      </g>
      <g
         id="g122"
         transform="translate(1034.687,977.8921)" />
      <g
         id="g126"
         transform="translate(1482.9829,987.5918)">
        <path
           d="m 0,0 -0.592,1.91 32.97,10.213 c -3.5,8.545 -26.867,7.893 -35.872,6.873 l -0.225,1.987 c 1.437,0.165 35.263,3.839 38.327,-9.291 l 0.212,-0.906 z"
           style="fill:#ffffff;fill-opacity:1;fill-rule:nonzero;stroke:none"
           id="path128" />
      </g>
      <g
         id="g130"
         transform="translate(1122.6899,959.125)">
        <path
           d="m 0,0 -0.196,1.99 394.026,38.937 0.196,-1.99 z"
           style="fill:#ffffff;fill-opacity:1;fill-rule:nonzero;stroke:none"
           id="path132" />
      </g>
      <g
         id="g134"
         transform="translate(1157.8481,951.6548)">
        <path
           d="M 0,0 -0.185,1.991 21.022,3.957 21.207,1.966 Z"
           style="fill:#ffffff;fill-opacity:1;fill-rule:nonzero;stroke:none"
           id="path136" />
      </g>
      <g
         id="g138"
         transform="translate(1161.6919,902.3809)">
        <path
           d="m 0,0 c -0.005,0.055 -0.55,5.554 -1.488,9.044 l 1.931,0.52 C 1.425,5.912 1.968,0.426 1.99,0.194 Z"
           style="fill:#ffffff;fill-opacity:1;fill-rule:nonzero;stroke:none"
           id="path140" />
      </g>
      <path
         d="m 1130.75,1011.685 h -62.857 v 2 h 62.857 z"
         style="fill:#ffffff;fill-opacity:1;fill-rule:nonzero;stroke:none"
         id="path142" />
      <g
         id="g144"
         transform="translate(1007.5332,826.7031)">
        <path
           d="m 0,0 c -0.12,0 -0.24,0.013 -0.359,0.038 -2.86,0.591 -2.922,5.283 -3.074,16.62 -0.091,6.909 1.079,8.26 2.108,8.665 0.183,0.072 0.362,0.109 0.535,0.119 -0.087,5.273 -5.277,11.142 -6.553,12.505 h -4.745 v 2 h 5.587 l 0.293,-0.293 C -5.864,39.311 2.206,31.145 1.108,23.901 L 0.792,21.82 -0.622,23.379 c -0.003,0.004 -0.009,0.009 -0.016,0.014 C -0.864,23.083 -1.5,21.757 -1.433,16.685 -1.336,9.414 -1.244,2.538 -0.029,2.02 0.61,2.478 1.573,5.484 2.027,8.477 l 1.977,-0.3 C 3.774,6.66 2.882,1.612 1.074,0.354 0.738,0.12 0.372,0 0,0"
           style="fill:#ffffff;fill-opacity:1;fill-rule:nonzero;stroke:none"
           id="path146" />
      </g>
      <g
         id="g148"
         transform="translate(856.1006,904.1914)">
        <path
           d="m 0,0 c -0.346,-1.249 -0.707,-3.652 -0.707,-7.093 0,-3.44 0.361,-5.844 0.707,-7.092 0.346,1.248 0.707,3.652 0.707,7.092 C 0.707,-3.652 0.346,-1.249 0,0 m 0,-16.989 c -2.355,0 -2.707,6.2 -2.707,9.896 0,3.697 0.352,9.897 2.707,9.897 2.355,0 2.707,-6.2 2.707,-9.897 0,-3.696 -0.352,-9.896 -2.707,-9.896"
           style="fill:#ffffff;fill-opacity:1;fill-rule:nonzero;stroke:none"
           id="path150" />
      </g>
      <g
         id="g152"
         transform="translate(1143.521,904.1909)">
        <path
           d="m 0,0 c -0.346,-1.249 -0.707,-3.652 -0.707,-7.092 0,-3.44 0.361,-5.844 0.707,-7.092 0.345,1.249 0.707,3.652 0.707,7.092 C 0.707,-3.652 0.345,-1.249 0,0 m 0,-16.989 c -2.355,0 -2.707,6.201 -2.707,9.897 0,3.696 0.352,9.897 2.707,9.897 2.355,0 2.707,-6.201 2.707,-9.897 0,-3.696 -0.352,-9.897 -2.707,-9.897"
           style="fill:#ffffff;fill-opacity:1;fill-rule:nonzero;stroke:none"
           id="path154" />
      </g>
      <g
         id="g156"
         transform="translate(744.46,1078.0327)">
        <path
           d="m 0,0 -1.548,-5.382 -11.774,-1.139 -11.642,-0.5 9.706,-6.591 9.3,-7.097 -1.549,-5.382 -37.188,-2.672 2.047,7.112 26.545,0.946 -21.915,15.15 1.189,4.133 26.685,1.427 -22.053,14.669 2.046,7.112 z"
           style="fill:#ffffff;fill-opacity:1;fill-rule:nonzero;stroke:none"
           id="path158" />
      </g>
      <g
         id="g160"
         transform="translate(759.8994,1113.4165)">
        <path
           d="m 0,0 -30.933,16.385 3.067,5.789 L 3.066,5.789 Z"
           style="fill:#ffffff;fill-opacity:1;fill-rule:nonzero;stroke:none"
           id="path162" />
      </g>
      <g
         id="g164"
         transform="translate(784.126,1170.686)">
        <path
           d="m 0,0 -18.514,14.554 4.079,5.188 27.515,-21.629 -3.307,-4.206 -29.811,-0.223 18.317,-14.399 -4.079,-5.188 -27.514,21.629 3.306,4.206 z"
           style="fill:#ffffff;fill-opacity:1;fill-rule:nonzero;stroke:none"
           id="path166" />
      </g>
      <g
         id="g168"
         transform="translate(820.7715,1226.3472)">
        <path
           d="m 0,0 c -3.243,0.25 -6.742,-1.001 -9.101,-2.935 -5.8,-4.753 -5.705,-12.045 -1.142,-17.613 3.645,-4.447 10.007,-6.925 16.735,-1.41 2.127,1.743 3.602,3.728 4.334,7.172 l -3.93,4.795 -6.921,-5.673 -3.74,4.562 11.6,9.508 9.35,-11.406 c -0.164,-5.241 -2.039,-9.816 -6.795,-13.714 -10.169,-8.335 -19.789,-5.037 -25.62,2.077 -6.244,7.617 -7.256,18.553 2.294,26.381 3.635,2.979 8.411,4.566 13.444,4.103 z"
           style="fill:#ffffff;fill-opacity:1;fill-rule:nonzero;stroke:none"
           id="path170" />
      </g>
      <g
         id="g172"
         transform="translate(871.3823,1257.3896)">
        <path
           d="m 0,0 c -1.985,1.224 -5.79,1.394 -9.165,-0.354 -4.351,-2.253 -5.495,-5.155 -4.299,-7.464 1.402,-2.708 4.99,-1.807 8.95,-0.32 6.897,2.558 13.809,3.998 17.65,-3.417 3.587,-6.927 -1,-13.075 -7.927,-16.663 -6.35,-3.288 -12.246,-3.864 -17.498,0.624 l 3.574,5.061 c 3.147,-2.707 7.525,-2.354 11.299,-0.399 3.686,1.909 6.482,4.99 4.735,8.365 -1.518,2.93 -5.203,2.542 -9.562,0.848 -6.74,-2.533 -13.476,-3.882 -17.086,3.09 -3.311,6.394 1.638,12.279 7.342,15.29 4.841,2.506 10.571,3.728 15.407,0.151 z"
           style="fill:#ffffff;fill-opacity:1;fill-rule:nonzero;stroke:none"
           id="path174" />
      </g>
      <g
         id="g176"
         transform="translate(962.6362,1262.7334)">
        <path
           d="M 0,0 C 8.175,1.113 10.411,7.674 9.734,13.386 9.044,19.196 4.848,25.185 -3.149,24.248 -10.532,23.243 -14.136,17.1 -13,10.241 -12.076,4.563 -8.175,-1.113 0,0 M 16.162,14.362 C 17.283,5.38 13.004,-4.336 0.816,-5.995 c -12.188,-1.659 -19.03,6.342 -20.271,15.458 -1.49,10.949 5.439,19.361 15.497,20.73 11.854,1.513 18.991,-6.801 20.12,-15.831"
           style="fill:#ffffff;fill-opacity:1;fill-rule:nonzero;stroke:none"
           id="path178" />
      </g>
      <g
         id="g180"
         transform="translate(1024.8853,1258.7397)">
        <path
           d="m 0,0 -6.83,0.537 -11.75,36.186 7.378,-0.58 8.382,-27.996 12.705,26.337 7.378,-0.58 z"
           style="fill:#ffffff;fill-opacity:1;fill-rule:nonzero;stroke:none"
           id="path182" />
      </g>
      <g
         id="g184"
         transform="translate(1089.7622,1245.0762)">
        <path
           d="m 0,0 -25.122,7.428 c 3.303,11.171 6.62,22.389 9.922,33.56 L 9.923,33.56 8.108,27.423 l -18.841,5.572 -2.283,-7.72 18.171,-5.372 -1.744,-5.897 -18.17,5.372 -2.24,-7.574 18.842,-5.572 z"
           style="fill:#ffffff;fill-opacity:1;fill-rule:nonzero;stroke:none"
           id="path186" />
      </g>
      <g
         id="g188"
         transform="translate(1135.5234,1256.4951)">
        <path
           d="m 0,0 -5.335,-9.847 8.836,-4.788 c 3.692,-2.001 6.609,-0.396 7.943,2.066 1.334,2.462 1.041,5.804 -2.608,7.781 z m 7.709,-36.989 -6.638,3.597 -3.35,15.122 -5.89,3.191 -5.574,-10.286 -5.803,3.144 16.697,30.816 C 2.031,5.951 6.886,3.264 11.766,0.62 c 7.23,-3.974 8.434,-10.882 5.552,-16.202 -2.287,-4.22 -6.531,-7.436 -13.021,-5.455 l 3.627,-15.556 z"
           style="fill:#ffffff;fill-opacity:1;fill-rule:nonzero;stroke:none"
           id="path190" />
      </g>
      <g
         id="g192"
         transform="translate(1207.1294,1187.7363)">
        <path
           d="m 0,0 6.665,-7.32 c 5.689,-6.249 14.824,2.136 9.168,8.347 L 9.169,8.348 Z m -4.474,-4.073 -7.616,-6.934 -4.443,4.88 25.88,23.563 C 13.016,13.406 16.823,9.299 20.492,5.269 32.072,-7.45 13.915,-24.048 2.191,-11.394 Z"
           style="fill:#ffffff;fill-opacity:1;fill-rule:nonzero;stroke:none"
           id="path194" />
      </g>
      <g
         id="g196"
         transform="translate(1247.9707,1123.2876)">
        <path
           d="M 0,0 20.389,11.787 23.692,6.073 -6.61,-11.444 -9.288,-6.812 1.576,20.952 -18.597,9.291 -21.9,15.005 8.402,32.522 11.08,27.89 Z"
           style="fill:#ffffff;fill-opacity:1;fill-rule:nonzero;stroke:none"
           id="path198" />
      </g>
      <g
         id="g200"
         transform="translate(1263.4473,1050.2417)">
        <path
           d="m 0,0 -1.516,5.392 9.414,7.166 9.638,6.553 -11.724,0.496 -11.645,1.142 -1.516,5.392 30.221,21.846 2.003,-7.125 L 2.796,26.084 29.409,24.735 30.573,20.595 8.63,5.335 35.107,4.467 37.11,-2.658 Z"
           style="fill:#ffffff;fill-opacity:1;fill-rule:nonzero;stroke:none"
           id="path202" />
      </g>
      <g
         id="g204"
         transform="translate(999.8867,704.5371)">
        <path
           d="m 0,0 c -37.914,0 -75.82,7.573 -110.699,22.213 -41.233,17.308 -78.277,44.549 -107.127,78.778 -0.61,0.604 -0.915,1.52 -1.184,2.328 -0.219,0.656 -0.426,1.276 -0.759,1.609 -9.077,9.078 -16.224,20.309 -23.136,31.17 l -9.014,15.023 c -12.946,24.81 -21.466,48.028 -26.074,71.034 l 1.961,0.393 c 4.571,-22.818 13.029,-45.862 25.857,-70.45 l 8.971,-14.948 c 6.84,-10.748 13.927,-21.885 22.85,-30.808 0.667,-0.667 0.972,-1.582 1.241,-2.39 0.219,-0.657 0.426,-1.277 0.759,-1.61 57.738,-68.496 145.652,-105.745 235.225,-99.709 35.569,3.234 66.543,10.732 94.67,22.92 23.079,10.034 43.026,22.066 62.773,37.863 14.982,12.678 25.096,22.213 34.887,32.895 0.642,0.806 1.298,1.633 1.935,2.436 3.067,3.868 5.717,7.211 9.05,10.55 28.603,37.09 46.289,74.133 54.072,113.25 l 1.962,-0.391 c -7.848,-39.442 -25.672,-76.775 -54.49,-114.132 l -0.084,-0.096 c -3.273,-3.273 -5.901,-6.587 -8.943,-10.424 -0.639,-0.805 -1.296,-1.634 -1.984,-2.493 -9.896,-10.8 -20.063,-20.386 -35.135,-33.139 -19.909,-15.928 -40,-28.046 -63.247,-38.154 C 86.011,11.443 54.836,3.895 19.029,0.639 12.698,0.212 6.346,0 0,0"
           style="fill:#ffffff;fill-opacity:1;fill-rule:nonzero;stroke:none"
           id="path206" />
      </g>
    </g>
  </g>
</svg>
